<svg width="630" height="444" viewBox="0 0 630 444" fill="none" xmlns="http://www.w3.org/2000/svg">
<rect width="630" height="444" fill="white"/>
<path d="M73.792 81V78.92H60.192V59.56H57.92V81H73.792ZM82.9815 81.32C86.9175 81.32 89.1895 78.76 89.7335 76.072H89.8935V81H91.9415V65.192H89.6695V72.872C89.6695 76.936 87.6535 79.272 83.7815 79.272C80.1335 79.272 78.5335 77.384 78.5335 74.088V65.192H76.2615V74.44C76.2615 78.184 78.4695 81.32 82.9815 81.32ZM96.8518 81L102.996 74.312H103.124L109.332 81H112.084L104.852 73.064V72.904L112.084 65.192H109.364L103.22 71.752H103.06L96.8838 65.192H94.1318L101.332 72.968V73.128L94.1318 81H96.8518ZM120.919 81.32C124.855 81.32 127.127 78.76 127.671 76.072H127.831V81H129.879V65.192H127.607V72.872C127.607 76.936 125.591 79.272 121.719 79.272C118.071 79.272 116.471 77.384 116.471 74.088V65.192H114.199V74.44C114.199 78.184 116.407 81.32 120.919 81.32ZM135.973 81V72.424C135.973 68.872 137.381 66.856 140.581 66.856C143.333 66.856 144.453 68.168 144.453 70.856V72.072H146.725V70.504C146.725 67.56 145.125 64.872 141.477 64.872C138.181 64.872 136.389 66.984 135.909 69.512H135.749V65.192H133.701V81H135.973ZM151.438 86.44C154.062 86.44 155.534 85.64 156.686 83.208L165.262 65.192H162.766L158.382 74.568L156.686 78.472H156.494L154.734 74.6L150.094 65.192H147.598L155.438 80.968L154.67 82.568C154.062 83.88 153.454 84.36 151.854 84.36H149.454V86.44H151.438ZM175.598 81V73.576C175.598 69.64 177.23 66.952 181.454 66.952C185.006 66.952 186.702 68.488 186.702 72.104V81H188.974V71.816C188.974 67.816 186.766 64.872 182.35 64.872C178.318 64.872 176.27 67.368 175.758 70.024H175.598V59.56H173.326V81H175.598ZM200.477 81.32C205.661 81.32 209.085 77.896 209.085 73.096C209.085 68.296 205.661 64.872 200.477 64.872C195.325 64.872 191.901 68.296 191.901 73.096C191.901 77.896 195.325 81.32 200.477 81.32ZM200.477 79.272C196.125 79.272 194.141 76.936 194.141 73.096C194.141 69.288 196.125 66.92 200.477 66.92C204.829 66.92 206.845 69.288 206.845 73.096C206.845 76.936 204.829 79.272 200.477 79.272ZM214.38 81V73.352C214.38 69.16 215.884 66.952 219.724 66.952C223.052 66.952 224.524 68.584 224.524 72.104V81H226.796V73.352C226.796 69.16 228.332 66.952 232.14 66.952C235.468 66.952 236.972 68.584 236.972 72.104V81H239.244V71.784C239.244 67.784 237.1 64.872 232.972 64.872C229.003 64.872 227.116 67.4 226.668 70.12H226.508C225.996 67.048 224.012 64.872 220.492 64.872C216.556 64.872 214.732 67.304 214.284 69.96H214.156V65.192H212.108V81H214.38ZM250.471 81.32C254.887 81.32 258.151 79.048 258.151 75.752V75.528H255.879V75.752C255.879 78.056 254.151 79.432 250.439 79.432C246.247 79.432 244.423 77.288 244.295 73.736H258.215C258.311 73.32 258.375 72.84 258.375 72.264C258.375 67.56 255.079 64.872 250.439 64.872C245.351 64.872 242.151 68.296 242.151 73.096C242.151 78.12 245.383 81.32 250.471 81.32ZM250.407 66.76C254.119 66.76 256.231 68.52 256.231 71.848C256.231 72.008 256.231 72.168 256.231 72.328H244.295C244.455 68.872 246.311 66.76 250.407 66.76ZM267.661 81L271.821 70.664L273.069 67.144H273.229L274.477 70.664L278.573 81H281.421L286.541 65.192H284.205L280.813 75.656L280.045 78.984H279.853L278.765 75.464L274.637 65.192H271.725L267.565 75.464L266.477 79.016H266.285L265.485 75.656L262.125 65.192H259.789L264.845 81H267.661ZM293.148 81.32C296.828 81.32 299.612 79.656 300.54 76.744H300.7V81H302.748V71.112C302.748 67.624 300.7 64.872 295.9 64.872C291.036 64.872 288.284 67.592 288.284 70.92V71.048H290.556V70.92C290.556 68.136 292.348 66.92 295.74 66.92C299.196 66.92 300.54 68.136 300.54 71.208V72.424L293.02 73.256C290.076 73.576 287.932 74.696 287.932 77.288C287.932 79.848 290.044 81.32 293.148 81.32ZM290.204 77.128C290.204 75.496 291.356 74.92 293.724 74.696L300.54 73.928V74.056C300.54 77.864 297.5 79.56 293.66 79.56C291.26 79.56 290.204 78.728 290.204 77.128ZM308.755 81V72.424C308.755 68.872 310.163 66.856 313.363 66.856C316.115 66.856 317.235 68.168 317.235 70.856V72.072H319.507V70.504C319.507 67.56 317.907 64.872 314.259 64.872C310.963 64.872 309.171 66.984 308.691 69.512H308.531V65.192H306.483V81H308.755ZM329.659 81.32C334.075 81.32 337.339 79.048 337.339 75.752V75.528H335.067V75.752C335.067 78.056 333.339 79.432 329.627 79.432C325.435 79.432 323.611 77.288 323.483 73.736H337.403C337.499 73.32 337.563 72.84 337.563 72.264C337.563 67.56 334.267 64.872 329.627 64.872C324.539 64.872 321.339 68.296 321.339 73.096C321.339 78.12 324.571 81.32 329.659 81.32ZM329.595 66.76C333.307 66.76 335.419 68.52 335.419 71.848C335.419 72.008 335.419 72.168 335.419 72.328H323.483C323.643 68.872 325.499 66.76 329.595 66.76ZM349.843 81V67.144H356.211V65.192H349.843C349.715 62.312 351.283 61.352 354.163 61.352H356.211V59.56H354.483C350.387 59.56 347.859 61.448 347.603 65.192H345.043V67.144H347.571V81H349.843ZM366.195 81.32C371.379 81.32 374.803 77.896 374.803 73.096C374.803 68.296 371.379 64.872 366.195 64.872C361.043 64.872 357.619 68.296 357.619 73.096C357.619 77.896 361.043 81.32 366.195 81.32ZM366.195 79.272C361.843 79.272 359.859 76.936 359.859 73.096C359.859 69.288 361.843 66.92 366.195 66.92C370.547 66.92 372.563 69.288 372.563 73.096C372.563 76.936 370.547 79.272 366.195 79.272ZM380.098 81V72.424C380.098 68.872 381.506 66.856 384.706 66.856C387.458 66.856 388.578 68.168 388.578 70.856V72.072H390.85V70.504C390.85 67.56 389.25 64.872 385.602 64.872C382.306 64.872 380.514 66.984 380.034 69.512H379.874V65.192H377.826V81H380.098ZM401.63 86.44V76.36H401.661C402.398 79.4 404.926 81.32 408.414 81.32C413.438 81.32 416.222 77.896 416.222 73.096C416.222 68.296 413.406 64.872 408.478 64.872C404.734 64.872 402.366 66.792 401.661 69.64H401.406V65.192H399.358V86.44H401.63ZM401.63 73.384V73.096C401.63 69.192 403.934 66.984 407.87 66.984C411.454 66.984 413.918 68.52 413.918 73.096C413.918 77.672 411.486 79.24 407.806 79.24C404.094 79.24 401.63 77.128 401.63 73.384ZM426.534 81.32C430.95 81.32 434.214 79.048 434.214 75.752V75.528H431.942V75.752C431.942 78.056 430.214 79.432 426.502 79.432C422.31 79.432 420.486 77.288 420.358 73.736H434.278C434.374 73.32 434.438 72.84 434.438 72.264C434.438 67.56 431.142 64.872 426.502 64.872C421.414 64.872 418.214 68.296 418.214 73.096C418.214 78.12 421.446 81.32 426.534 81.32ZM426.47 66.76C430.182 66.76 432.294 68.52 432.294 71.848C432.294 72.008 432.294 72.168 432.294 72.328H420.358C420.518 68.872 422.374 66.76 426.47 66.76ZM445.195 81.32C450.379 81.32 453.803 77.896 453.803 73.096C453.803 68.296 450.379 64.872 445.195 64.872C440.043 64.872 436.619 68.296 436.619 73.096C436.619 77.896 440.043 81.32 445.195 81.32ZM445.195 79.272C440.843 79.272 438.859 76.936 438.859 73.096C438.859 69.288 440.843 66.92 445.195 66.92C449.547 66.92 451.563 69.288 451.563 73.096C451.563 76.936 449.547 79.272 445.195 79.272ZM459.098 86.44V76.36H459.13C459.866 79.4 462.394 81.32 465.882 81.32C470.906 81.32 473.69 77.896 473.69 73.096C473.69 68.296 470.874 64.872 465.946 64.872C462.202 64.872 459.834 66.792 459.13 69.64H458.874V65.192H456.826V86.44H459.098ZM459.098 73.384V73.096C459.098 69.192 461.402 66.984 465.338 66.984C468.922 66.984 471.386 68.52 471.386 73.096C471.386 77.672 468.954 79.24 465.274 79.24C461.562 79.24 459.098 77.128 459.098 73.384ZM478.755 81V59.56H476.483V81H478.755ZM490.096 81.32C494.512 81.32 497.776 79.048 497.776 75.752V75.528H495.504V75.752C495.504 78.056 493.776 79.432 490.064 79.432C485.872 79.432 484.048 77.288 483.92 73.736H497.84C497.936 73.32 498 72.84 498 72.264C498 67.56 494.704 64.872 490.064 64.872C484.976 64.872 481.776 68.296 481.776 73.096C481.776 78.12 485.008 81.32 490.096 81.32ZM490.032 66.76C493.744 66.76 495.856 68.52 495.856 71.848C495.856 72.008 495.856 72.168 495.856 72.328H483.92C484.08 68.872 485.936 66.76 490.032 66.76ZM64.192 126L68.352 115.664L69.6 112.144H69.76L71.008 115.664L75.104 126H77.952L83.072 110.192H80.736L77.344 120.656L76.576 123.984H76.384L75.296 120.464L71.168 110.192H68.256L64.096 120.464L63.008 124.016H62.816L62.016 120.656L58.656 110.192H56.32L61.376 126H64.192ZM87.567 126V118.576C87.567 114.64 89.199 111.952 93.423 111.952C96.975 111.952 98.671 113.488 98.671 117.104V126H100.943V116.816C100.943 112.816 98.735 109.872 94.319 109.872C90.287 109.872 88.239 112.368 87.727 115.024H87.567V104.56H85.295V126H87.567ZM112.445 126.32C117.629 126.32 121.053 122.896 121.053 118.096C121.053 113.296 117.629 109.872 112.445 109.872C107.293 109.872 103.869 113.296 103.869 118.096C103.869 122.896 107.293 126.32 112.445 126.32ZM112.445 124.272C108.093 124.272 106.109 121.936 106.109 118.096C106.109 114.288 108.093 111.92 112.445 111.92C116.797 111.92 118.813 114.288 118.813 118.096C118.813 121.936 116.797 124.272 112.445 124.272ZM132.223 126V104.56H129.951V126H132.223ZM143.789 126.32C148.973 126.32 152.397 122.896 152.397 118.096C152.397 113.296 148.973 109.872 143.789 109.872C138.637 109.872 135.213 113.296 135.213 118.096C135.213 122.896 138.637 126.32 143.789 126.32ZM143.789 124.272C139.437 124.272 137.453 121.936 137.453 118.096C137.453 114.288 139.437 111.92 143.789 111.92C148.141 111.92 150.157 114.288 150.157 118.096C150.157 121.936 148.141 124.272 143.789 124.272ZM164.156 126L171.708 110.192H169.244L162.876 123.76H162.684L156.284 110.192H153.82L161.372 126H164.156ZM181.471 126.32C185.887 126.32 189.151 124.048 189.151 120.752V120.528H186.879V120.752C186.879 123.056 185.151 124.432 181.439 124.432C177.247 124.432 175.423 122.288 175.295 118.736H189.215C189.311 118.32 189.375 117.84 189.375 117.264C189.375 112.56 186.079 109.872 181.439 109.872C176.351 109.872 173.151 113.296 173.151 118.096C173.151 123.12 176.383 126.32 181.471 126.32ZM181.407 111.76C185.119 111.76 187.231 113.52 187.231 116.848C187.231 117.008 187.231 117.168 187.231 117.328H175.295C175.455 113.872 177.311 111.76 181.407 111.76ZM207.96 126V123.92H205.08C202.776 123.92 201.688 123.312 201.688 121.104V112.144H207.96V110.192H201.688V106.416H199.384V110.192H196.568V112.144H199.384V120.976C199.384 124.688 201.4 126 204.536 126H207.96ZM212.723 108.176V104.56H210.451V108.176H212.723ZM212.723 126V110.192H210.451V126H212.723ZM218.817 126V118.352C218.817 114.16 220.321 111.952 224.161 111.952C227.489 111.952 228.961 113.584 228.961 117.104V126H231.233V118.352C231.233 114.16 232.769 111.952 236.577 111.952C239.905 111.952 241.409 113.584 241.409 117.104V126H243.681V116.784C243.681 112.784 241.537 109.872 237.409 109.872C233.441 109.872 231.553 112.4 231.105 115.12H230.945C230.433 112.048 228.449 109.872 224.929 109.872C220.993 109.872 219.169 112.304 218.721 114.96H218.593V110.192H216.545V126H218.817ZM254.909 126.32C259.325 126.32 262.589 124.048 262.589 120.752V120.528H260.317V120.752C260.317 123.056 258.589 124.432 254.877 124.432C250.685 124.432 248.861 122.288 248.733 118.736H262.653C262.749 118.32 262.813 117.84 262.813 117.264C262.813 112.56 259.517 109.872 254.877 109.872C249.789 109.872 246.589 113.296 246.589 118.096C246.589 123.12 249.821 126.32 254.909 126.32ZM254.845 111.76C258.557 111.76 260.669 113.52 260.669 116.848C260.669 117.008 260.669 117.168 260.669 117.328H248.733C248.893 113.872 250.749 111.76 254.845 111.76ZM268.098 126V104.56H265.826V126H268.098ZM279.44 126.32C283.856 126.32 287.12 124.048 287.12 120.752V120.528H284.848V120.752C284.848 123.056 283.12 124.432 279.408 124.432C275.216 124.432 273.392 122.288 273.264 118.736H287.184C287.28 118.32 287.344 117.84 287.344 117.264C287.344 112.56 284.048 109.872 279.408 109.872C274.32 109.872 271.12 113.296 271.12 118.096C271.12 123.12 274.352 126.32 279.44 126.32ZM279.376 111.76C283.088 111.76 285.2 113.52 285.2 116.848C285.2 117.008 285.2 117.168 285.2 117.328H273.264C273.424 113.872 275.28 111.76 279.376 111.76ZM297.302 126.32C301.398 126.32 304.342 124.752 304.342 121.776C304.342 119.216 302.518 118.064 299.126 117.584L295.254 117.04C292.63 116.656 291.798 116.08 291.798 114.448C291.798 112.56 293.174 111.76 296.502 111.76C300.534 111.76 301.782 113.04 301.782 115.408V115.568H304.054V115.504C304.054 111.792 301.11 109.872 296.566 109.872C292.214 109.872 289.558 111.632 289.558 114.416C289.558 117.04 291.382 118.16 294.262 118.544L298.486 119.152C301.11 119.568 302.102 120.112 302.102 121.776C302.102 123.6 300.886 124.432 297.334 124.432C293.462 124.432 291.894 123.504 291.894 120.848V120.656H289.622V120.72C289.622 124.368 292.438 126.32 297.302 126.32ZM314.27 126.32C318.366 126.32 321.31 124.752 321.31 121.776C321.31 119.216 319.486 118.064 316.094 117.584L312.222 117.04C309.598 116.656 308.766 116.08 308.766 114.448C308.766 112.56 310.142 111.76 313.47 111.76C317.502 111.76 318.75 113.04 318.75 115.408V115.568H321.022V115.504C321.022 111.792 318.078 109.872 313.534 109.872C309.182 109.872 306.526 111.632 306.526 114.416C306.526 117.04 308.35 118.16 311.23 118.544L315.454 119.152C318.078 119.568 319.07 120.112 319.07 121.776C319.07 123.6 317.854 124.432 314.302 124.432C310.43 124.432 308.862 123.504 308.862 120.848V120.656H306.59V120.72C306.59 124.368 309.406 126.32 314.27 126.32ZM336.986 126.32C340.474 126.32 343.034 124.496 343.802 121.328H343.93V126H346.01V104.56H343.738V114.608H343.578C342.874 111.888 340.538 109.872 336.794 109.872C331.93 109.872 329.114 113.296 329.114 118.096C329.114 122.896 331.93 126.32 336.986 126.32ZM331.418 118.096C331.418 113.52 333.882 111.984 337.498 111.984C341.402 111.984 343.738 114.16 343.738 118.064V118.352C343.738 122.096 341.274 124.24 337.562 124.24C333.85 124.24 331.418 122.672 331.418 118.096ZM357.346 126.32C361.762 126.32 365.026 124.048 365.026 120.752V120.528H362.754V120.752C362.754 123.056 361.026 124.432 357.314 124.432C353.122 124.432 351.298 122.288 351.17 118.736H365.09C365.186 118.32 365.25 117.84 365.25 117.264C365.25 112.56 361.954 109.872 357.314 109.872C352.226 109.872 349.026 113.296 349.026 118.096C349.026 123.12 352.258 126.32 357.346 126.32ZM357.282 111.76C360.994 111.76 363.106 113.52 363.106 116.848C363.106 117.008 363.106 117.168 363.106 117.328H351.17C351.33 113.872 353.186 111.76 357.282 111.76ZM375.208 126.32C379.304 126.32 382.248 124.752 382.248 121.776C382.248 119.216 380.424 118.064 377.032 117.584L373.16 117.04C370.536 116.656 369.704 116.08 369.704 114.448C369.704 112.56 371.08 111.76 374.408 111.76C378.44 111.76 379.688 113.04 379.688 115.408V115.568H381.96V115.504C381.96 111.792 379.016 109.872 374.472 109.872C370.12 109.872 367.464 111.632 367.464 114.416C367.464 117.04 369.288 118.16 372.168 118.544L376.392 119.152C379.016 119.568 380.008 120.112 380.008 121.776C380.008 123.6 378.792 124.432 375.24 124.432C371.368 124.432 369.8 123.504 369.8 120.848V120.656H367.528V120.72C367.528 124.368 370.344 126.32 375.208 126.32ZM387.505 108.176V104.56H385.233V108.176H387.505ZM387.505 126V110.192H385.233V126H387.505ZM398.11 124.72C401.758 124.72 404.094 122.928 404.734 120.496H404.894V124.624C404.894 128.56 403.294 129.808 399.198 129.808C395.678 129.808 393.822 128.72 393.822 125.936H391.55C391.55 129.616 394.814 131.76 399.102 131.76C403.87 131.76 407.166 129.712 407.166 124.496V110.192H405.118V114.256H404.958C404.318 111.44 401.694 109.872 398.366 109.872C393.502 109.872 390.526 112.976 390.526 117.296C390.526 121.616 393.406 124.72 398.11 124.72ZM392.798 117.296C392.798 113.264 395.326 111.888 398.878 111.888C402.526 111.888 404.894 113.744 404.894 116.848V117.392C404.894 120.752 402.622 122.704 398.718 122.704C395.294 122.704 392.798 121.328 392.798 117.296ZM413.286 126V118.352C413.286 114.288 415.302 111.952 419.142 111.952C422.758 111.952 424.326 113.84 424.326 117.104V126H426.598V116.784C426.598 113.04 424.39 109.872 419.942 109.872C416.006 109.872 413.766 112.464 413.222 115.152H413.062V110.192H411.014V126H413.286ZM442.922 126.32C446.41 126.32 448.938 124.4 449.674 121.36H449.738V131.44H452.01V110.192H449.93V114.64H449.674C448.97 111.792 446.602 109.872 442.858 109.872C437.93 109.872 435.114 113.296 435.114 118.096C435.114 122.896 437.898 126.32 442.922 126.32ZM437.418 118.096C437.418 113.52 439.882 111.984 443.498 111.984C447.402 111.984 449.738 114.192 449.738 118.096V118.384C449.738 122.128 447.274 124.24 443.562 124.24C439.85 124.24 437.418 122.672 437.418 118.096ZM462.45 126.32C466.386 126.32 468.658 123.76 469.202 121.072H469.362V126H471.41V110.192H469.138V117.872C469.138 121.936 467.122 124.272 463.25 124.272C459.602 124.272 458.002 122.384 458.002 119.088V110.192H455.73V119.44C455.73 123.184 457.938 126.32 462.45 126.32ZM479.617 126.32C483.297 126.32 486.081 124.656 487.009 121.744H487.169V126H489.217V116.112C489.217 112.624 487.169 109.872 482.369 109.872C477.505 109.872 474.753 112.592 474.753 115.92V116.048H477.025V115.92C477.025 113.136 478.817 111.92 482.209 111.92C485.665 111.92 487.009 113.136 487.009 116.208V117.424L479.489 118.256C476.545 118.576 474.401 119.696 474.401 122.288C474.401 124.848 476.513 126.32 479.617 126.32ZM476.673 122.128C476.673 120.496 477.825 119.92 480.193 119.696L487.009 118.928V119.056C487.009 122.864 483.969 124.56 480.129 124.56C477.729 124.56 476.673 123.728 476.673 122.128ZM495.223 126V104.56H492.951V126H495.223ZM501.317 108.176V104.56H499.045V108.176H501.317ZM501.317 126V110.192H499.045V126H501.317ZM514.835 126V123.92H511.955C509.651 123.92 508.563 123.312 508.563 121.104V112.144H514.835V110.192H508.563V106.416H506.259V110.192H503.443V112.144H506.259V120.976C506.259 124.688 508.275 126 511.411 126H514.835ZM519.406 131.44C522.03 131.44 523.502 130.64 524.654 128.208L533.23 110.192H530.734L526.35 119.568L524.654 123.472H524.462L522.702 119.6L518.062 110.192H515.566L523.406 125.968L522.638 127.568C522.03 128.88 521.422 129.36 519.822 129.36H517.422V131.44H519.406Z" fill="#22202E"/>
<path d="M56.792 168.46C56.792 170.224 57.854 171.376 59.87 171.862L62.048 172.402C63.434 172.726 64.082 173.482 64.082 174.634C64.082 176.11 62.876 177.028 60.986 177.028C59.222 177.028 58.034 176.146 57.962 174.796H56.63C56.792 176.902 58.484 178.216 60.986 178.216C63.65 178.216 65.378 176.794 65.378 174.562C65.378 172.816 64.334 171.664 62.318 171.178L60.104 170.638C58.754 170.296 58.088 169.576 58.088 168.442C58.088 166.984 59.276 166.048 61.094 166.048C62.714 166.048 63.704 166.876 63.848 168.334H65.162C64.964 166.174 63.434 164.878 61.112 164.878C58.52 164.878 56.792 166.3 56.792 168.46ZM68.6806 177.982V173.248C68.6806 171.574 69.6526 170.188 71.5246 170.188C72.8746 170.188 73.8286 170.908 73.8286 172.942V178H75.0706V172.672C75.0706 170.476 74.0446 169.054 71.7586 169.054C70.3006 169.054 69.2386 169.756 68.6806 170.8V164.878H67.4386V177.982H68.6806ZM76.934 173.644C76.934 176.29 78.806 178.216 81.362 178.216C83.918 178.216 85.79 176.29 85.79 173.644C85.79 170.98 83.918 169.054 81.362 169.054C78.806 169.054 76.934 170.98 76.934 173.644ZM78.194 173.626C78.194 171.61 79.49 170.17 81.362 170.17C83.216 170.17 84.53 171.61 84.53 173.626C84.53 175.678 83.216 177.1 81.362 177.1C79.49 177.1 78.194 175.678 78.194 173.626ZM87.7765 181.798H89.0185V176.326C89.6305 177.586 90.8005 178.216 92.2765 178.216C94.8505 178.216 96.3085 176.236 96.3085 173.608C96.3085 170.98 94.7965 169.054 92.2765 169.054C90.8185 169.054 89.5945 169.702 88.9825 171.052L88.8565 169.288H87.7765V181.798ZM89.0365 173.644C89.0365 171.628 90.1525 170.188 92.0605 170.188C93.9505 170.188 95.0485 171.628 95.0485 173.644C95.0485 175.642 93.9505 177.1 92.0605 177.1C90.1525 177.1 89.0365 175.642 89.0365 173.644ZM105.278 178V170.332H107.024V169.288H105.278V166.534H104.054V169.288H102.308V170.332H104.054V178H105.278ZM109.884 177.982V173.248C109.884 171.574 110.856 170.188 112.728 170.188C114.078 170.188 115.032 170.908 115.032 172.942V178H116.274V172.672C116.274 170.476 115.248 169.054 112.962 169.054C111.504 169.054 110.442 169.756 109.884 170.8V164.878H108.642V177.982H109.884ZM122.403 178.216C124.455 178.216 125.805 177.226 126.273 175.39H125.085C124.761 176.542 123.843 177.154 122.421 177.154C120.549 177.154 119.433 175.93 119.343 173.806H126.273V173.194C126.273 170.728 124.671 169.054 122.313 169.054C119.829 169.054 118.137 170.926 118.137 173.644C118.137 176.38 119.847 178.216 122.403 178.216ZM122.313 170.116C123.951 170.116 125.031 171.232 125.031 172.906H119.379C119.595 171.196 120.675 170.116 122.313 170.116ZM134.493 178V173.446C134.493 171.484 135.501 170.188 137.283 170.188C138.723 170.188 139.641 170.908 139.641 172.942V178H140.883V172.672C140.883 170.476 139.893 169.054 137.499 169.054C136.239 169.054 135.087 169.684 134.511 170.8L134.331 169.288H133.251V178H134.493ZM147.013 178.216C149.065 178.216 150.415 177.226 150.883 175.39H149.695C149.371 176.542 148.453 177.154 147.031 177.154C145.159 177.154 144.043 175.93 143.953 173.806H150.883V173.194C150.883 170.728 149.281 169.054 146.923 169.054C144.438 169.054 142.747 170.926 142.747 173.644C142.747 176.38 144.457 178.216 147.013 178.216ZM146.923 170.116C148.561 170.116 149.641 171.232 149.641 172.906H143.989C144.205 171.196 145.285 170.116 146.923 170.116ZM154.476 178H155.718L157.518 172.528C157.752 171.808 157.896 171.286 158.022 170.818C158.13 171.34 158.274 171.88 158.49 172.528L160.29 178H161.496L164.448 169.288H163.152L161.424 174.544C161.118 175.48 161.082 175.696 160.902 176.416C160.74 175.768 160.524 175.012 160.362 174.544L158.652 169.288H157.374L155.646 174.544C155.556 174.832 155.268 175.714 155.124 176.416C154.944 175.714 154.782 175.12 154.584 174.544L152.874 169.288H151.596L154.476 178ZM170.487 168.46C170.487 170.224 171.549 171.376 173.565 171.862L175.743 172.402C177.129 172.726 177.777 173.482 177.777 174.634C177.777 176.11 176.571 177.028 174.681 177.028C172.917 177.028 171.729 176.146 171.657 174.796H170.325C170.487 176.902 172.179 178.216 174.681 178.216C177.345 178.216 179.073 176.794 179.073 174.562C179.073 172.816 178.029 171.664 176.013 171.178L173.799 170.638C172.449 170.296 171.783 169.576 171.783 168.442C171.783 166.984 172.971 166.048 174.789 166.048C176.409 166.048 177.399 166.876 177.543 168.334H178.857C178.659 166.174 177.129 164.878 174.807 164.878C172.215 164.878 170.487 166.3 170.487 168.46ZM181.134 181.798H182.376V176.326C182.988 177.586 184.158 178.216 185.634 178.216C188.208 178.216 189.666 176.236 189.666 173.608C189.666 170.98 188.154 169.054 185.634 169.054C184.176 169.054 182.952 169.702 182.34 171.052L182.214 169.288H181.134V181.798ZM182.394 173.644C182.394 171.628 183.51 170.188 185.418 170.188C187.308 170.188 188.406 171.628 188.406 173.644C188.406 175.642 187.308 177.1 185.418 177.1C183.51 177.1 182.394 175.642 182.394 173.644ZM196.2 169.18C195.894 169.108 195.66 169.09 195.39 169.09C194.166 169.09 193.248 169.702 192.906 170.638L192.816 169.288H191.646V178H192.888V173.032C192.888 171.376 193.914 170.296 195.516 170.296H196.2V169.18ZM198.463 166.894C198.967 166.894 199.399 166.48 199.399 165.976C199.399 165.472 198.967 165.04 198.463 165.04C197.959 165.04 197.545 165.472 197.545 165.976C197.545 166.48 197.959 166.894 198.463 166.894ZM197.851 178H199.093V169.288H197.851V178ZM202.925 178V173.446C202.925 171.484 203.933 170.188 205.715 170.188C207.155 170.188 208.073 170.908 208.073 172.942V178H209.315V172.672C209.315 170.476 208.325 169.054 205.931 169.054C204.671 169.054 203.519 169.684 202.943 170.8L202.763 169.288H201.683V178H202.925ZM211.196 173.392C211.196 175.768 212.708 177.73 215.192 177.73C216.686 177.73 217.892 177.01 218.486 175.786V177.856C218.486 179.674 217.298 180.88 215.516 180.88C213.95 180.88 212.87 180.052 212.6 178.648H211.358C211.7 180.754 213.266 182.014 215.498 182.014C218.054 182.014 219.71 180.322 219.71 177.73V169.288H218.63L218.504 171.034C217.946 169.756 216.794 169.054 215.282 169.054C212.726 169.054 211.196 171.016 211.196 173.392ZM212.438 173.374C212.438 171.61 213.518 170.152 215.39 170.152C217.298 170.152 218.378 171.52 218.378 173.374C218.378 175.246 217.262 176.614 215.372 176.614C213.536 176.614 212.438 175.156 212.438 173.374ZM235.304 178V176.794H228.806L231.812 174.166C234.386 171.916 235.232 170.674 235.232 168.802C235.232 166.444 233.612 164.878 231.182 164.878C228.644 164.878 226.934 166.66 226.862 169.36H228.158C228.212 167.362 229.382 166.066 231.164 166.066C232.874 166.066 233.918 167.128 233.918 168.874C233.918 170.404 233.306 171.304 230.93 173.374L226.808 176.974V178H235.304ZM237.095 171.556C237.095 175.57 239.021 178.234 242.261 178.234C245.483 178.234 247.409 175.57 247.409 171.556C247.409 167.56 245.447 164.86 242.261 164.86C239.057 164.86 237.095 167.56 237.095 171.556ZM238.373 171.556C238.373 168.19 239.795 166.048 242.261 166.048C244.727 166.048 246.149 168.19 246.149 171.556C246.149 174.904 244.727 177.064 242.261 177.064C239.795 177.064 238.373 174.904 238.373 171.556ZM257.699 178V176.794H251.201L254.207 174.166C256.781 171.916 257.627 170.674 257.627 168.802C257.627 166.444 256.007 164.878 253.577 164.878C251.039 164.878 249.329 166.66 249.257 169.36H250.553C250.607 167.362 251.777 166.066 253.559 166.066C255.269 166.066 256.313 167.128 256.313 168.874C256.313 170.404 255.701 171.304 253.325 173.374L249.203 176.974V178H257.699ZM267.841 178V176.794H261.343L264.349 174.166C266.923 171.916 267.769 170.674 267.769 168.802C267.769 166.444 266.149 164.878 263.719 164.878C261.181 164.878 259.471 166.66 259.399 169.36H260.695C260.749 167.362 261.919 166.066 263.701 166.066C265.411 166.066 266.455 167.128 266.455 168.874C266.455 170.404 265.843 171.304 263.467 173.374L259.345 176.974V178H267.841ZM274.319 173.662C274.319 176.398 275.993 178.216 278.459 178.216C280.439 178.216 281.987 177.046 282.401 175.264H281.141C280.799 176.38 279.755 177.1 278.459 177.1C276.695 177.1 275.543 175.714 275.543 173.644C275.543 171.502 276.785 170.152 278.549 170.152C279.755 170.152 280.799 170.818 281.123 172.024H282.365C282.023 170.224 280.547 169.054 278.531 169.054C275.993 169.054 274.319 170.926 274.319 173.662ZM283.67 173.644C283.67 176.29 285.542 178.216 288.098 178.216C290.654 178.216 292.526 176.29 292.526 173.644C292.526 170.98 290.654 169.054 288.098 169.054C285.542 169.054 283.67 170.98 283.67 173.644ZM284.93 173.626C284.93 171.61 286.226 170.17 288.098 170.17C289.952 170.17 291.266 171.61 291.266 173.626C291.266 175.678 289.952 177.1 288.098 177.1C286.226 177.1 284.93 175.678 284.93 173.626ZM295.809 178V164.878H294.567V178H295.809ZM299.746 178V164.878H298.504V178H299.746ZM306.042 178.216C308.094 178.216 309.444 177.226 309.912 175.39H308.724C308.4 176.542 307.482 177.154 306.06 177.154C304.188 177.154 303.072 175.93 302.982 173.806H309.912V173.194C309.912 170.728 308.31 169.054 305.952 169.054C303.468 169.054 301.776 170.926 301.776 173.644C301.776 176.38 303.486 178.216 306.042 178.216ZM305.952 170.116C307.59 170.116 308.67 171.232 308.67 172.906H303.018C303.234 171.196 304.314 170.116 305.952 170.116ZM311.286 173.662C311.286 176.398 312.96 178.216 315.426 178.216C317.406 178.216 318.954 177.046 319.368 175.264H318.108C317.766 176.38 316.722 177.1 315.426 177.1C313.662 177.1 312.51 175.714 312.51 173.644C312.51 171.502 313.752 170.152 315.516 170.152C316.722 170.152 317.766 170.818 318.09 172.024H319.332C318.99 170.224 317.514 169.054 315.498 169.054C312.96 169.054 311.286 170.926 311.286 173.662ZM323.247 178V170.332H324.993V169.288H323.247V166.534H322.023V169.288H320.277V170.332H322.023V178H323.247ZM327.222 166.894C327.726 166.894 328.158 166.48 328.158 165.976C328.158 165.472 327.726 165.04 327.222 165.04C326.718 165.04 326.304 165.472 326.304 165.976C326.304 166.48 326.718 166.894 327.222 166.894ZM326.61 178H327.852V169.288H326.61V178ZM329.83 173.644C329.83 176.29 331.702 178.216 334.258 178.216C336.814 178.216 338.686 176.29 338.686 173.644C338.686 170.98 336.814 169.054 334.258 169.054C331.702 169.054 329.83 170.98 329.83 173.644ZM331.09 173.626C331.09 171.61 332.386 170.17 334.258 170.17C336.112 170.17 337.426 171.61 337.426 173.626C337.426 175.678 336.112 177.1 334.258 177.1C332.386 177.1 331.09 175.678 331.09 173.626ZM341.915 178V173.446C341.915 171.484 342.923 170.188 344.705 170.188C346.145 170.188 347.063 170.908 347.063 172.942V178H348.305V172.672C348.305 170.476 347.315 169.054 344.921 169.054C343.661 169.054 342.509 169.684 341.933 170.8L341.753 169.288H340.673V178H341.915ZM357.771 178V170.332H359.517V169.288H357.771V166.534H356.547V169.288H354.801V170.332H356.547V178H357.771ZM360.434 173.644C360.434 176.29 362.306 178.216 364.862 178.216C367.418 178.216 369.29 176.29 369.29 173.644C369.29 170.98 367.418 169.054 364.862 169.054C362.306 169.054 360.434 170.98 360.434 173.644ZM361.694 173.626C361.694 171.61 362.99 170.17 364.862 170.17C366.716 170.17 368.03 171.61 368.03 173.626C368.03 175.678 366.716 177.1 364.862 177.1C362.99 177.1 361.694 175.678 361.694 173.626ZM374.696 178.216C376.154 178.216 377.378 177.568 377.99 176.218L378.116 178H379.196V164.878H377.954V170.944C377.342 169.684 376.19 169.054 374.75 169.054C372.158 169.054 370.664 171.034 370.664 173.662C370.664 176.272 372.158 178.216 374.696 178.216ZM374.912 177.082C373.022 177.082 371.924 175.642 371.924 173.626C371.924 171.628 373.022 170.17 374.912 170.17C376.82 170.17 377.936 171.628 377.936 173.626C377.936 175.642 376.82 177.082 374.912 177.082ZM384.29 178.216C385.766 178.216 386.954 177.568 387.494 176.47L387.656 178H388.7V172.366C388.7 170.062 387.224 169.054 385.208 169.054C383.066 169.054 381.626 170.188 381.626 171.952H382.76C382.76 170.782 383.66 170.098 385.172 170.098C386.45 170.098 387.476 170.638 387.476 172.348V172.636L384.596 172.87C382.562 173.032 381.338 174.04 381.338 175.642C381.338 177.172 382.436 178.216 384.29 178.216ZM384.578 177.208C383.39 177.208 382.598 176.668 382.598 175.606C382.598 174.634 383.264 173.914 384.902 173.77L387.476 173.572V174.04C387.476 175.93 386.414 177.208 384.578 177.208ZM390.117 181.798C390.513 181.888 390.909 181.924 391.431 181.924C392.673 181.924 393.519 181.366 394.023 179.998L398.019 169.288H396.741L393.987 176.884L391.179 169.288H389.865L393.393 178.522L393.015 179.548C392.583 180.718 391.827 180.772 391.071 180.772H390.117V181.798Z" fill="#5B5676"/>
<rect width="170" height="56" transform="translate(56 342)" fill="#F9F9F9"/>
<path d="M92.544 376H93.744L98.096 364.544H96.912L93.872 372.496C93.696 372.928 93.408 373.728 93.168 374.56C92.912 373.76 92.688 373.136 92.448 372.512L89.392 364.544H88.16L92.544 376ZM99.946 366.128C100.394 366.128 100.778 365.76 100.778 365.312C100.778 364.864 100.394 364.48 99.946 364.48C99.498 364.48 99.13 364.864 99.13 365.312C99.13 365.76 99.498 366.128 99.946 366.128ZM99.402 376H100.506V368.256H99.402V376ZM106.056 376.192C107.88 376.192 109.08 375.312 109.496 373.68H108.44C108.152 374.704 107.336 375.248 106.072 375.248C104.408 375.248 103.416 374.16 103.336 372.272H109.496V371.728C109.496 369.536 108.072 368.048 105.976 368.048C103.768 368.048 102.264 369.712 102.264 372.128C102.264 374.56 103.784 376.192 106.056 376.192ZM105.976 368.992C107.432 368.992 108.392 369.984 108.392 371.472H103.368C103.56 369.952 104.52 368.992 105.976 368.992ZM112.69 376H113.794L115.394 371.136C115.602 370.496 115.73 370.032 115.842 369.616C115.938 370.08 116.066 370.56 116.258 371.136L117.858 376H118.93L121.554 368.256H120.402L118.866 372.928C118.594 373.76 118.562 373.952 118.402 374.592C118.258 374.016 118.066 373.344 117.922 372.928L116.402 368.256H115.266L113.73 372.928C113.65 373.184 113.394 373.968 113.266 374.592C113.106 373.968 112.962 373.44 112.786 372.928L111.266 368.256H110.13L112.69 376ZM126.827 372.144C126.827 374.576 128.315 376.192 130.507 376.192C132.267 376.192 133.643 375.152 134.011 373.568H132.891C132.587 374.56 131.659 375.2 130.507 375.2C128.939 375.2 127.915 373.968 127.915 372.128C127.915 370.224 129.019 369.024 130.587 369.024C131.659 369.024 132.587 369.616 132.875 370.688H133.979C133.675 369.088 132.363 368.048 130.571 368.048C128.315 368.048 126.827 369.712 126.827 372.144ZM135.139 372.128C135.139 374.48 136.803 376.192 139.075 376.192C141.347 376.192 143.011 374.48 143.011 372.128C143.011 369.76 141.347 368.048 139.075 368.048C136.803 368.048 135.139 369.76 135.139 372.128ZM136.259 372.112C136.259 370.32 137.411 369.04 139.075 369.04C140.723 369.04 141.891 370.32 141.891 372.112C141.891 373.936 140.723 375.2 139.075 375.2C137.411 375.2 136.259 373.936 136.259 372.112ZM145.929 376V364.336H144.825V376H145.929ZM149.429 376V364.336H148.325V376H149.429ZM155.025 376.192C156.849 376.192 158.049 375.312 158.465 373.68H157.409C157.121 374.704 156.305 375.248 155.041 375.248C153.377 375.248 152.385 374.16 152.305 372.272H158.465V371.728C158.465 369.536 157.041 368.048 154.945 368.048C152.737 368.048 151.233 369.712 151.233 372.128C151.233 374.56 152.753 376.192 155.025 376.192ZM154.945 368.992C156.401 368.992 157.361 369.984 157.361 371.472H152.337C152.529 369.952 153.489 368.992 154.945 368.992ZM159.686 372.144C159.686 374.576 161.174 376.192 163.366 376.192C165.126 376.192 166.502 375.152 166.87 373.568H165.75C165.446 374.56 164.518 375.2 163.366 375.2C161.798 375.2 160.774 373.968 160.774 372.128C160.774 370.224 161.878 369.024 163.446 369.024C164.518 369.024 165.446 369.616 165.734 370.688H166.838C166.534 369.088 165.222 368.048 163.43 368.048C161.174 368.048 159.686 369.712 159.686 372.144ZM170.319 376V369.184H171.871V368.256H170.319V365.808H169.231V368.256H167.679V369.184H169.231V376H170.319ZM173.852 366.128C174.3 366.128 174.684 365.76 174.684 365.312C174.684 364.864 174.3 364.48 173.852 364.48C173.404 364.48 173.036 364.864 173.036 365.312C173.036 365.76 173.404 366.128 173.852 366.128ZM173.308 376H174.412V368.256H173.308V376ZM176.171 372.128C176.171 374.48 177.835 376.192 180.107 376.192C182.379 376.192 184.043 374.48 184.043 372.128C184.043 369.76 182.379 368.048 180.107 368.048C177.835 368.048 176.171 369.76 176.171 372.128ZM177.291 372.112C177.291 370.32 178.443 369.04 180.107 369.04C181.755 369.04 182.923 370.32 182.923 372.112C182.923 373.936 181.755 375.2 180.107 375.2C178.443 375.2 177.291 373.936 177.291 372.112ZM186.912 376V371.952C186.912 370.208 187.808 369.056 189.392 369.056C190.672 369.056 191.488 369.696 191.488 371.504V376H192.592V371.264C192.592 369.312 191.712 368.048 189.584 368.048C188.464 368.048 187.44 368.608 186.928 369.6L186.768 368.256H185.808V376H186.912Z" fill="#2A254B"/>
</svg>
